:SAMPLES-PER-SECOND 30
:FRAME-RANGE 1-1390
:FULLY-SPECIFIED
:DEGREES
696
root  49.5557 37.1966 -10.999 169.105 -0.932148 -176.891
RightUpLeg  -83.9138 -13.8474 57.0123
RightLeg  126.789 10.4431 -12.1261
RightFoot  -31.1798 -0.433888 -1.26881
RightToes  6.35937e-011 1.2921e-014 -6.02303e-014
Spine  16.8643 -1.0526 4.91048
Spine1  -1.04325 2.99744 -9.41627
HEad  26.7347 -3.56265 -0.777313
LeftShoulder1  2.69644 -7.47615 -18.7211
LeftArm  43.1418 -23.4156 -68.8313
LeftForeArm  26.5423 -2.09127 -18.2928
LeftHand  0.0022542 7.14291 2.50475
RightShoulder  2.79686 7.23351 20.2653
RightArm  2.5068 31.5418 94.2358
RightForeArm  119.351 -4.05378 9.52521
RightHand  1.16997 -18.6391 -10.6842
LeftUpLeg  -14.2164 -8.79503 -1.98742
LeftLeg  42.272 3.67132 3.98734
LeftFoot  -14.0026 0.140057 2.4088
LeftToes  4.52251e-011 4.07896e-011 -5.42348e-012
697
root  50.3116 38.5947 -10.1041 171.566 -2.62107 -176.418
RightUpLeg  -86.7296 -14.2402 56.4117
RightLeg  127.226 4.0233 -4.30386
RightFoot  -30.4509 0.144237 2.08693
RightToes  6.35937e-011 1.2921e-014 -6.02303e-014
Spine  15.8484 -1.27239 3.84181
Spine1  -1.8993 2.82968 -9.27879
HEad  24.5779 -3.91969 0.229262
LeftShoulder1  2.99008 -9.002 -17.9453
LeftArm  41.1917 -24.9323 -70.46
LeftForeArm  30.9868 -1.74049 -18.1295
LeftHand  0.000579203 7.69056 2.00024
RightShoulder  2.74181 7.36917 19.3468
RightArm  1.59291 33.2285 94.4766
RightForeArm  117.813 -3.9232 8.25931
RightHand  1.12173 -17.8946 -10.8597
LeftUpLeg  -13.5972 -16.5021 -0.448783
LeftLeg  32.2211 8.68022 6.22815
LeftFoot  -5.14404 0.038014 -0.13022
LeftToes  4.52251e-011 4.07896e-011 -5.42348e-012
698
root  50.992 39.7197 -9.1471 174.068 -3.83808 -176.468
RightUpLeg  -89.3298 -13.4237 56.4448
RightLeg  127.278 0.83608 -0.407645
RightFoot  -29.9207 0.339543 3.3191
RightToes  6.35937e-011 1.2921e-014 -6.02303e-014
Spine  15.3979 -1.54252 3.75984
Spine1  -3.29495 2.50167 -9.33227
HEad  22.818 -3.18598 -1.1788
LeftShoulder1  3.23879 -9.72635 -18.5471
LeftArm  41.9582 -25.4731 -70.3187
LeftForeArm  32.0343 -2.1567 -18.0632
LeftHand  -0.0209181 6.31446 1.47214
RightShoulder  2.65894 7.34612 18.5647
RightArm  0.327983 33.812 94.3631
RightForeArm  116.592 -3.81216 7.21697
RightHand  0.850868 -15.9353 -9.91944
LeftUpLeg  -13.7241 -25.1823 0.0276782
LeftLeg  24.8645 15.8491 8.23105
LeftFoot  1.81922 -0.598845 5.09233
LeftToes  4.52251e-011 4.07896e-011 -5.42348e-012
699
root  51.5175 40.3133 -8.20125 175.119 -3.81758 -176.547
RightUpLeg  -90.1267 -12.6282 56.6767
RightLeg  127.308 1.30347 -0.977741
RightFoot  -30.2087 0.33161 3.23181
RightToes  6.35937e-011 1.2921e-014 -6.02303e-014
Spine  15.4364 -1.79575 4.62506
Spine1  -3.96061 2.25871 -8.82257
HEad  21.5786 -0.542011 -4.76328
LeftShoulder1  3.34435 -9.63448 -19.6173
LeftArm  47.3844 -24.5718 -69.2679
LeftForeArm  25.4123 -3.60824 -18.1706
LeftHand  0.0126523 7.15891 3.11495
RightShoulder  2.65457 7.34475 18.5236
RightArm  2.20469 33.8582 93.2347
RightForeArm  110.331 -4.40432 9.10228
RightHand  0.790147 -15.8313 -9.36674
LeftUpLeg  -13.8047 -22.6642 -1.74461
LeftLeg  24.8383 4.44227 2.59731
LeftFoot  -2.61812 -0.335928 4.6094
LeftToes  4.52251e-011 4.07896e-011 -5.42348e-012
700
root  51.9438 40.3643 -7.22412 174.456 -3.13536 -177.161
RightUpLeg  -89.4069 -12.6883 56.9063
RightLeg  127.033 4.15875 -4.50058
RightFoot  -30.3937 0.201601 2.43281
RightToes  6.35937e-011 1.2921e-014 -6.02303e-014
Spine  16.6334 -1.90959 5.3826
Spine1  -3.83857 1.96991 -7.89963
HEad  20.1245 2.971 -8.65522
LeftShoulder1  3.32864 -9.14268 -20.5794
LeftArm  45.0237 -23.8622 -68.2237
LeftForeArm  25.8725 -2.84527 -18.2522
LeftHand  -0.0106535 6.47385 2.32998
RightShoulder  2.59314 7.0962 18.5266
RightArm  3.30303 33.1759 92.7973
RightForeArm  111.963 -4.48225 10.0833
RightHand  0.800953 -15.7385 -9.561
LeftUpLeg  -12.2745 -17.4413 -6.09636
LeftLeg  29.7931 -1.44865 -0.536001
LeftFoot  -8.13409 0.118775 -2.49868
LeftToes  4.52251e-011 4.07896e-011 -5.42348e-012
701
root  52.316 40.0424 -6.31995 174.463 -0.998007 -177.104
RightUpLeg  -87.3748 -11.5601 57.7955
RightLeg  126.348 5.83984 -6.71764
RightFoot  -30.0772 0.0820512 1.73662
RightToes  6.35937e-011 1.2921e-014 -6.02303e-014
Spine  16.7256 -1.7312 7.48094
Spine1  -3.49811 2.33774 -7.75419
HEad  18.1992 6.17806 -11.3997
LeftShoulder1  3.3624 -8.80456 -21.6757
LeftArm  34.9058 -23.6592 -66.9598
LeftForeArm  33.2908 -0.0533907 -18.0305
LeftHand  -0.000549538 7.2773 2.2199
RightShoulder  2.63991 7.21588 18.7023
RightArm  3.32867 32.6732 93.1009
RightForeArm  115.007 -4.34067 10.0828
RightHand  0.884598 -15.9673 -10.245
LeftUpLeg  -12.241 -9.44758 -9.47322
LeftLeg  37.0066 -0.754839 -0.229187
LeftFoot  -12.5383 0.0102472 -6.20088
LeftToes  4.52251e-011 4.07896e-011 -5.42348e-012
702
root  52.7599 39.2624 -5.39995 175.051 0.633405 -176.443
RightUpLeg  -85.5517 -10.2759 58.8682
RightLeg  125.931 4.65668 -5.32753
RightFoot  -30.081 0.203544 2.4728
RightToes  6.35937e-011 1.2921e-014 -6.02303e-014
Spine  16.6944 -1.74557 8.75244
Spine1  -3.8433 2.23683 -6.36807
HEad  15.5628 9.37711 -12.8615
LeftShoulder1  3.40882 -8.98291 -21.6484
LeftArm  32.2799 -23.1879 -66.6488
LeftForeArm  34.711 0.448434 -17.9359
LeftHand  -0.00209205 7.33877 2.0876
RightShoulder  2.67442 7.04697 19.5041
RightArm  1.84228 32.4926 94.1125
RightForeArm  118.325 -3.98245 8.77852
RightHand  0.857525 -16.4617 -9.54399
LeftUpLeg  -13.5835 -2.93213 -11.8665
LeftLeg  44.5173 2.4317 2.97783
LeftFoot  -11.2778 0.0710496 -6.36582
LeftToes  4.52251e-011 4.07896e-011 -5.42348e-012
703
root  53.2707 38.1191 -4.47577 175.743 0.918268 -175.572
RightUpLeg  -84.717 -9.81336 59.7259
RightLeg  125.376 2.79677 -3.02431
RightFoot  -30.5632 0.418212 3.69692
RightToes  6.35937e-011 1.2921e-014 -6.02303e-014
Spine  16.4832 -2.22693 8.73988
Spine1  -3.66386 1.32878 -3.78963
HEad  10.9987 12.2102 -13.3755
LeftShoulder1  3.4745 -9.34866 -21.3458
LeftArm  31.2736 -22.079 -65.9717
LeftForeArm  33.0946 0.683716 -17.983
LeftHand  -0.016511 6.13952 2.2188
RightShoulder  2.67873 6.88359 19.9947
RightArm  0.512643 32.4849 95.4699
RightForeArm  120.093 -3.69123 7.46003
RightHand  1.0181 -17.1036 -10.5738
LeftUpLeg  -13.5071 0.63284 -13.4074
LeftLeg  46.6525 5.85219 7.02845
LeftFoot  -3.79798 0.240889 -3.30798
LeftToes  4.52251e-011 4.07896e-011 -5.42348e-012
704
root  53.8486 37.0022 -3.7295 176.832 1.66423 -174.228
RightUpLeg  -83.2611 -9.21417 59.358
RightLeg  124.216 0.99088 -0.707118
RightFoot  -30.5539 0.566611 4.57466
RightToes  6.35937e-011 1.2921e-014 -6.02303e-014
Spine  15.0922 -2.22073 8.71451
Spine1  -2.54356 1.02043 -2.04259
HEad  5.67596 13.7061 -11.7398
LeftShoulder1  3.49827 -9.58735 -20.999
LeftArm  29.941 -21.6407 -65.5871
LeftForeArm  33.073 1.02893 -17.946
LeftHand  -0.0176112 6.00984 2.32864
RightShoulder  2.7033 6.58567 21.1096
RightArm  0.569949 32.2113 95.8643
RightForeArm  121.119 -3.65575 7.52821
RightHand  1.16901 -18.218 -11.0081
LeftUpLeg  -10.5227 1.96837 -13.1232
LeftLeg  41.8345 8.0023 8.00397
LeftFoot  -16.6093 0.398603 6.48522
LeftToes  4.52251e-011 4.07896e-011 -5.42348e-012
705
root  54.4952 35.6695 -2.83985 177.132 -0.260604 -175.123
RightUpLeg  -85.0307 -10.0915 57.5467
RightLeg  124.381 2.11585 -2.22717
RightFoot  -30.9052 0.216514 2.4751
RightToes  6.35937e-011 1.2921e-014 -6.02303e-014
Spine  15.7695 -2.89756 5.60838
Spine1  -2.90249 -0.10772 -0.658561
HEad  0.993085 13.7874 -8.86975
LeftShoulder1  3.33157 -9.28491 -20.2802
LeftArm  28.9077 -22.6309 -66.3562
LeftForeArm  33.8916 1.37241 -17.8643
LeftHand  -0.0115243 6.29932 2.52264
RightShoulder  2.65105 6.06051 22.1456
RightArm  1.4745 32.2252 95.6627
RightForeArm  122.573 -3.68771 8.13466
RightHand  1.31918 -18.5036 -12.046
LeftUpLeg  -11.6856 -5.5532 -14.8824
LeftLeg  44.0146 11.4171 11.9817
LeftFoot  -26.6461 1.58087 10.5359
LeftToes  4.52251e-011 4.07896e-011 -5.42348e-012
706
root  55.182 34.7278 -1.80972 176.683 -2.09467 -175.821
RightUpLeg  -85.7037 -12.721 57.5216
RightLeg  123.756 5.6305 -7.12279
RightFoot  -32.0436 -0.0503532 0.918307
RightToes  6.35937e-011 1.2921e-014 -6.02303e-014
Spine  17.1072 -2.62037 5.23637
Spine1  -2.25087 0.460334 -2.20626
HEad  -3.14977 10.5011 -6.39762
LeftShoulder1  3.34312 -9.6736 -19.5231
LeftArm  26.9866 -24.9903 -68.3095
LeftForeArm  38.6387 1.85311 -17.5771
LeftHand  0.0489467 7.93952 3.93168
RightShoulder  2.65725 6.01001 22.3796
RightArm  2.36136 32.9399 93.87
RightForeArm  119.938 -3.94741 9.02073
RightHand  1.43509 -18.4383 -13.0829
LeftUpLeg  -16.2829 -7.24397 -15.2912
LeftLeg  51.4466 10.5722 14.3382
LeftFoot  -28.9213 1.66138 9.58955
LeftToes  4.52251e-011 4.07896e-011 -5.42348e-012
